<?xml version="1.0" standalone="no"?>
<!DOCTYPE svg PUBLIC "-//W3C//DTD SVG 20010904//EN"
 "http://www.w3.org/TR/2001/REC-SVG-20010904/DTD/svg10.dtd">
<svg version="1.0" xmlns="http://www.w3.org/2000/svg"
 width="300.000000pt" height="300.000000pt" viewBox="0 0 300.000000 300.000000"
 preserveAspectRatio="xMidYMid meet">
<metadata>
Created by potrace 1.11, written by Peter Selinger 2001-2013
</metadata>
<g transform="translate(0.000000,300.000000) scale(0.100000,-0.100000)"
fill="#000000" stroke="none">
<path d="M0 1500 l0 -1500 1500 0 1500 0 0 1500 0 1500 -1500 0 -1500 0 0
-1500z m1156 327 c17 -136 40 -347 50 -468 13 -161 22 -223 32 -226 7 -3 15
-3 18 0 3 2 16 124 29 270 13 146 37 358 51 471 l28 206 118 0 118 0 0 -526 0
-525 -52 3 -53 3 4 478 4 477 -26 0 c-19 0 -28 -6 -32 -22 -2 -13 -19 -165
-36 -338 -17 -173 -41 -378 -53 -455 l-21 -140 -93 -3 c-50 -1 -92 1 -92 5 0
5 -11 87 -24 183 -14 96 -39 309 -58 473 l-33 297 -26 0 -26 0 5 -481 5 -480
-52 3 -51 3 -3 523 -2 523 120 -3 120 -3 31 -248z m974 206 c0 -31 -43 -187
-130 -474 -71 -235 -130 -430 -130 -433 0 -3 54 -6 120 -6 l120 0 0 -45 0 -45
-175 0 -175 0 0 45 c0 36 139 524 256 897 5 16 -7 18 -118 20 l-123 3 -3 43
-3 42 180 0 181 0 0 -47z"/>
</g>
</svg>
